<?xml version="1.0" encoding="UTF-8" standalone="no"?>
<!-- Created with Inkscape (http://www.inkscape.org/) -->

<svg
   xmlns:dc="http://purl.org/dc/elements/1.1/"
   xmlns:cc="http://creativecommons.org/ns#"
   xmlns:rdf="http://www.w3.org/1999/02/22-rdf-syntax-ns#"
   xmlns:svg="http://www.w3.org/2000/svg"
   xmlns="http://www.w3.org/2000/svg"
   xmlns:sodipodi="http://sodipodi.sourceforge.net/DTD/sodipodi-0.dtd"
   xmlns:inkscape="http://www.inkscape.org/namespaces/inkscape"
   id="svg3537"
   version="1.1"
   inkscape:version="0.91 r13725"
   width="25"
   height="25"
   viewBox="0 0 25 25"
   sodipodi:docname="firefoxos.svg">
  <metadata
     id="metadata3543">
    <rdf:RDF>
      <cc:Work
         rdf:about="">
        <dc:format>image/svg+xml</dc:format>
        <dc:type
           rdf:resource="http://purl.org/dc/dcmitype/StillImage" />
        <dc:title></dc:title>
      </cc:Work>
    </rdf:RDF>
  </metadata>
  <defs
     id="defs3541" />
  <sodipodi:namedview
     pagecolor="#ffffff"
     bordercolor="#666666"
     borderopacity="1"
     objecttolerance="10"
     gridtolerance="10"
     guidetolerance="10"
     inkscape:pageopacity="0"
     inkscape:pageshadow="2"
     inkscape:window-width="2560"
     inkscape:window-height="1392"
     id="namedview3539"
     showgrid="false"
     inkscape:zoom="5.9844713"
     inkscape:cx="51.160427"
     inkscape:cy="-17.872517"
     inkscape:window-x="0"
     inkscape:window-y="0"
     inkscape:window-maximized="1"
     inkscape:current-layer="layer1" />
  <g
     inkscape:groupmode="layer"
     id="layer1"
     inkscape:label="Layer 1"
     transform="translate(0,-169)">
    <path
       style="fill:#000000;fill-opacity:1;fill-rule:evenodd;stroke:#000000;stroke-width:0.19322459px;stroke-linecap:butt;stroke-linejoin:miter;stroke-opacity:1"
       d="m 18.449093,172.50511 c 1.168274,4.05697 0.512207,4.77526 -0.258303,5.71491 -1.721762,2.09973 -0.960088,2.63306 -2.066407,4.35884 -0.602989,0.94061 -1.000919,0.7749 -1.000919,0.7749 0,0 0.274925,0.047 0.548889,-1.51752 -1.310716,1.81937 -2.392519,1.18567 -4.649423,3.35792 1.098944,-1.48847 2.547995,-2.76946 3.002753,-4.52027 0.312106,-1.20161 -0.05289,-3.36266 -0.548889,-4.52028 -0.725943,-1.69428 -2.182928,-2.00562 -3.357917,-2.90589 -0.1231885,-0.55059 -1.194645,-0.80719 -1.194645,-0.80719 l 0.032287,0.74262 c 0,0 -0.3151435,0.0308 -0.4197387,-0.0646 -0.5102667,-0.46534 -1.6789586,-0.58118 -1.6789586,-0.58118 0,0 0.6995936,1.15275 0.774904,1.80811 -0.917863,1.16998 -0.565321,1.3979 -0.9363422,1.8404 -0.6132501,0.7314 -2.4861502,1.42066 -2.4861502,1.42066 0,0 0.4771,0.66798 0.8394794,0.80719 1.2464425,0.47883 2.7542255,-0.60009 4.0036698,-0.12915 0.2208731,0.0832 0.5291823,0.24861 0.5166034,0.48431 -1.4264551,0.0356 -1.381883,0.6573 -1.7112465,1.29151 -0.4417149,0.85055 0.2224255,1.96994 -0.096863,2.8736 -0.3456406,0.97825 -1.2524819,0.40959 -1.8726845,2.48615 -0.3271965,1.42134 0.8394793,4.29426 0.8394793,4.29426 l 0.5811779,0.0323 c 0,0 0.4193362,0.35867 0.6780409,0.41974 0.1156963,0.0273 0.3551644,-0.0323 0.3551644,-0.0323 l -0.096863,-0.67804 0.2905891,-0.0323 c 0,0 0.085305,0.54268 0.290589,0.67804 0.1527444,0.10072 0.5488896,0 0.5488896,0 -0.1117437,-0.47129 0.032288,-0.32288 0.032288,-0.32288 l 0.2260148,0.35517 c 0,0 0.5114323,0.25296 0.6780403,0.0969 0.102404,-0.0959 -0.03229,-0.41974 -0.03229,-0.41974 l -0.3874517,-0.32288 1.7435327,0 0.41974,0.32288 c 0,0 0.768453,0.17665 0.871768,-0.0969 0.113073,-0.29935 -0.645753,-0.71033 -0.645753,-0.71033 l -1.420659,-0.0323 c 0,0 0.238439,-0.61705 -0.226013,-1.51752 0.317325,-0.57875 1.808109,-0.80719 1.808109,-0.80719 0,0 4.039969,1.13256 6.392958,-1.45294 -0.988527,0.18446 -0.871766,-0.0969 -0.871766,-0.0969 0,0 2.196632,-2.11204 3.131902,-3.48707 -0.64965,0.323 -1.000917,0.67804 -1.000917,0.67804 0,0 4.517008,-5.69934 -1.646671,-9.78316 z"
       id="path3548"
       inkscape:connector-curvature="0"
       sodipodi:nodetypes="csscccsscccsccscsccsccccscccscccsccccsccccccccc" />
  </g>
</svg>
