<?xml version="1.0" encoding="UTF-8" standalone="no"?>
<!-- Created with Inkscape (http://www.inkscape.org/) -->

<svg
   xmlns:dc="http://purl.org/dc/elements/1.1/"
   xmlns:cc="http://creativecommons.org/ns#"
   xmlns:rdf="http://www.w3.org/1999/02/22-rdf-syntax-ns#"
   xmlns:svg="http://www.w3.org/2000/svg"
   xmlns="http://www.w3.org/2000/svg"
   xmlns:sodipodi="http://sodipodi.sourceforge.net/DTD/sodipodi-0.dtd"
   xmlns:inkscape="http://www.inkscape.org/namespaces/inkscape"
   width="18"
   height="18"
   viewBox="0 0 18.000001 18"
   id="svg4837"
   version="1.1"
   inkscape:version="0.91 r13725"
   sodipodi:docname="footnote5.svg">
  <defs
     id="defs4839" />
  <sodipodi:namedview
     id="base"
     pagecolor="#ffffff"
     bordercolor="#666666"
     borderopacity="1.0"
     inkscape:pageopacity="0.0"
     inkscape:pageshadow="2"
     inkscape:zoom="63.356767"
     inkscape:cx="9.3271057"
     inkscape:cy="8.6517076"
     inkscape:document-units="px"
     inkscape:current-layer="layer1"
     showgrid="false"
     units="px"
     inkscape:window-width="2560"
     inkscape:window-height="1392"
     inkscape:window-x="0"
     inkscape:window-y="0"
     inkscape:window-maximized="1"
     inkscape:snap-grids="true" />
  <metadata
     id="metadata4842">
    <rdf:RDF>
      <cc:Work
         rdf:about="">
        <dc:format>image/svg+xml</dc:format>
        <dc:type
           rdf:resource="http://purl.org/dc/dcmitype/StillImage" />
        <dc:title />
      </cc:Work>
    </rdf:RDF>
  </metadata>
  <g
     inkscape:label="Layer 1"
     inkscape:groupmode="layer"
     id="layer1"
     transform="translate(0,-1034.3622)">
    <path
       d="M 0,0 0,18 M 10,0 10,18 M 0,0 18,0 M 0,10 18,10"
       style="fill:none;fill-opacity:0.75000000;fill-rule:evenodd;stroke:#000000;stroke-linecap:butt;stroke-linejoin:miter;stroke-opacity:1.0000000;stroke-width:1pt"
       id="path4847" />
    <path
       d="M 0,0 0,18 M 10,0 10,18 M 0,0 18,0 M 0,10 18,10"
       style="fill:none;fill-opacity:0.75000000;fill-rule:evenodd;stroke:#000000;stroke-linecap:butt;stroke-linejoin:miter;stroke-opacity:1.0000000;stroke-width:1pt"
       id="path4849" />
    <path
       d="M 0,0 0,18 M 1,0 1,18 M 2,0 2,18 M 3,0 3,18 M 4,0 4,18 M 5,0 5,18 M 6,0 6,18 M 7,0 7,18 M 8,0 8,18 M 9,0 9,18 M 10,0 10,18 M 11,0 11,18 M 12,0 12,18 M 13,0 13,18 M 14,0 14,18 M 15,0 15,18 M 16,0 16,18 M 17,0 17,18 M 18,0 18,18 M 0,0 18,0 M 0,1 18,1 M 0,2 18,2 M 0,3 18,3 M 0,4 18,4 M 0,5 18,5 M 0,6 18,6 M 0,7 18,7 M 0,8 18,8 M 0,9 18,9 m -18,1 18,0 m -18,1 18,0 m -18,1 18,0 m -18,1 18,0 m -18,1 18,0 m -18,1 18,0 m -18,1 18,0 m -18,1 18,0 m -18,1 18,0"
       style="fill:none;fill-opacity:0.75000000;fill-rule:evenodd;stroke:#000000;stroke-linecap:butt;stroke-linejoin:miter;stroke-opacity:1.0000000;stroke-width:1pt"
       id="path4853" />
    <path
       style="font-style:normal;font-weight:normal;font-size:18.07313156px;line-height:125%;font-family:sans-serif;letter-spacing:0px;word-spacing:0px;fill:#000000;fill-opacity:1;stroke:none;stroke-width:1px;stroke-linecap:butt;stroke-linejoin:miter;stroke-opacity:1"
       d="M 5.4785156 0.8828125 L 1.7363281 0.88671875 L 1 0.88671875 L 1 17 L 1.7363281 17 L 4.7421875 17 L 5.4785156 17 L 5.4707031 15.501953 L 3.359375 15.501953 L 3.359375 2.5820312 L 5.4863281 2.5722656 L 5.4785156 0.8828125 z M 12.003906 0.88476562 L 9 0.88671875 L 8.2636719 0.88671875 L 8.2402344 2.6054688 L 10.371094 2.5898438 L 10.339844 15.509766 L 8.2636719 15.5 L 8.2636719 16.998047 L 9 16.998047 L 9 17 L 12.740234 17 L 12.740234 0.88671875 L 12.003906 0.88671875 L 12.003906 0.88476562 z "
       transform="translate(0,1034.3622)"
       id="path4860" />
  </g>
</svg>
